<?xml version="1.0" encoding="UTF-8" standalone="no"?>
<svg
   xmlns:dc="http://purl.org/dc/elements/1.1/"
   xmlns:cc="http://creativecommons.org/ns#"
   xmlns:rdf="http://www.w3.org/1999/02/22-rdf-syntax-ns#"
   xmlns:svg="http://www.w3.org/2000/svg"
   xmlns="http://www.w3.org/2000/svg"
   xmlns:sodipodi="http://sodipodi.sourceforge.net/DTD/sodipodi-0.dtd"
   xmlns:inkscape="http://www.inkscape.org/namespaces/inkscape"
   width="220"
   height="220"
   id="svg3103"
   version="1.1"
   inkscape:version="0.48.4 r9939"
   sodipodi:docname="knapsack.svg"
   style="stroke:#007cc3"
   inkscape:export-filename="/home/steven/repos/tropofy.com/static/css/img/tropofy_example_app_icons/knapsack.png"
   inkscape:export-xdpi="90"
   inkscape:export-ydpi="90">
  <metadata
     id="metadata3115">
    <rdf:RDF>
      <cc:Work
         rdf:about="">
        <dc:format>image/svg+xml</dc:format>
        <dc:type
           rdf:resource="http://purl.org/dc/dcmitype/StillImage" />
        <dc:title>BSicon: Water Saving Basins (3) (Panama Canal)</dc:title>
      </cc:Work>
    </rdf:RDF>
  </metadata>
  <defs
     id="defs3113" />
  <sodipodi:namedview
     pagecolor="#ffffff"
     bordercolor="#666666"
     borderopacity="1"
     objecttolerance="10"
     gridtolerance="10"
     guidetolerance="10"
     inkscape:pageopacity="0"
     inkscape:pageshadow="2"
     inkscape:window-width="1855"
     inkscape:window-height="1056"
     id="namedview3111"
     showgrid="true"
     inkscape:zoom="2.6700354"
     inkscape:cx="58.431399"
     inkscape:cy="118.95339"
     inkscape:window-x="1985"
     inkscape:window-y="24"
     inkscape:window-maximized="1"
     inkscape:current-layer="svg3103"
     inkscape:snap-grids="false"
     inkscape:snap-to-guides="false">
    <inkscape:grid
       type="xygrid"
       id="grid4525" />
  </sodipodi:namedview>
  <title
     id="title3105">BSicon: Water Saving Basins (3) (Panama Canal)</title>
  <path
     style="fill:#797979;fill-opacity:1;stroke:#797979;stroke-width:1.06111968px;stroke-linecap:butt;stroke-linejoin:miter;stroke-opacity:1"
     d="M 22.471783,145.81197 191.8575,73.39956 c 4.83618,3.068704 4.45456,6.137408 4.18153,9.206112 L 25.416838,153.82657 c -11.29067,-0.0943 -2.958361,-5.09432 -2.945055,-8.0146 z"
     id="path3013"
     inkscape:connector-curvature="0"
     sodipodi:nodetypes="ccccc" />
  <path
     style="fill:#0099cb;fill-opacity:1;stroke:#0099cb;stroke-width:1.06111968px;stroke-linecap:butt;stroke-linejoin:miter;stroke-opacity:1"
     d="m 158.25,99.59375 c -1.78857,0.120225 -3.6418,0.64947 -5.5,1.1875 -9.76922,5.88312 -18.75793,11.58921 -21.21875,15.90625 -18.53784,12.37973 -18.84171,24.74527 -15.90625,37.125 2.60729,11.28259 11.70661,20.01714 26.5,26.53125 11.15006,-0.65859 29.10699,15.92734 45.375,-15.90625 3.99557,-5.68224 10.99641,-4.74777 13,-31.84375 -0.9288,-8.83599 -7.32579,-26.3889 -37.125,-31.8125 -1.59871,-1.018931 -3.33643,-1.307725 -5.125,-1.1875 z m -1.5625,4.375 c 11.4544,-1.96886 21.08716,5.571 10.08792,8.58898 5.49541,-3.96101 -5.20076,-6.70214 -12.33792,-8.55773 0.74529,-0.024 1.50403,-0.0412 2.25,-0.0312 z m -8.21875,3.59375 c 4.54748,-0.13022 10.36865,7.46447 11.79979,16.68326 -2.6979,-5.23763 -7.00309,-8.88121 -11.79979,-16.68326 z m -5.15625,3.59375 c -3.78817,4.59707 -8.70694,9.55103 -6.61335,17.08898 L 131,124.65625 c 0.48415,-4.35713 5.54695,-10.18976 12.3125,-13.5 z"
     id="path3009"
     inkscape:connector-curvature="0"
     sodipodi:nodetypes="scccccccscccscccccccc" />
  <path
     style="fill:#0099cb;fill-opacity:1;stroke:#0099cb;stroke-width:1.06111968px;stroke-linecap:butt;stroke-linejoin:miter;stroke-opacity:1"
     d="M 152.7512,100.7706 C 150.36685,89.701416 145.88722,89.108671 142.14,84.853806 164.70117,79.111376 173.9596,55.142457 165.04849,35.911913 145.95656,42.683334 138.77371,67.601879 142.14,84.853806 121.8676,69.59425 116.04368,69.551721 97.267224,69.251751 118.6379,105.07812 123.70665,93.087227 142.14,84.853806 c -7.68816,7.074132 -13.50706,11.763755 5.3056,18.837884 z"
     id="path3011"
     inkscape:connector-curvature="0"
     sodipodi:nodetypes="cccccccc" />
</svg>
